# AST/ASF file generated using VICON BodyLanguage
# -----------------------------------------------
:version 1.10
:name VICON
:units
  mass 1.0
  length 0.45
  angle deg
:documentation
   .ast/.asf automatically generated from VICON data using
   VICON BodyBuilder and BodyLanguage model FoxedUp or BRILLIANT.MOD
:root
   order TX TY TZ RX RY RZ
   axis XYZ
   position 0 0 0  
   orientation 0 0 0 
:bonedata
  begin
     id 1 
     name lhipjoint
     direction 0.567149 -0.783011 0.255413 
     length 2.28399 
     axis 0 0 0  XYZ
  end
  begin
     id 2 
     name lfemur
     direction 0.34202 -0.939693 0  
     length 7.34031  
     axis 0 0 20  XYZ
    dof rx ry rz
    limits (-160.0 20.0)
           (-70.0 70.0)
           (-60.0 70.0)
  end
  begin
     id 3 
     name ltibia
     direction 0.34202 -0.939693 0   
     length 6.9833   
     axis 0 0 20   XYZ
    dof rx
    limits (-10.0 170.0)
  end
  begin
     id 4 
     name lfoot
     direction 0.136498 -0.375025 0.91691   
     length 2.33665   
     axis -90 7.62852e-016 20   XYZ
    dof rx rz
    limits (-45.0 90.0)
           (-70.0 20.0)
  end
  begin
     id 5 
     name ltoes
     direction 1.5367e-011 -4.21617e-011 1   
     length 1.15039   
     axis -90 7.62852e-016 20   XYZ
    dof rx
    limits (-90.0 20.0)
  end
  begin
     id 6 
     name rhipjoint
     direction -0.602854 -0.758518 0.247423   
     length 2.35775  
     axis 0 0 0  XYZ 
  end
  begin
     id 7 
     name rfemur
     direction -0.34202 -0.939693 0   
     length 7.43932   
     axis 0 0 -20   XYZ
    dof rx ry rz
    limits (-160.0 20.0)
           (-70.0 70.0)
           (-70.0 60.0)
  end
  begin
     id 8 
     name rtibia
     direction -0.34202 -0.939693 0   
     length 7.11893   
     axis 0 0 -20   XYZ
    dof rx
    limits (-10.0 170.0)
 end
 begin
     id 9 
     name rfoot
     direction -0.131771 -0.362037 0.922803   
     length 2.53019  
     axis -90 -7.62852e-016 -20   XYZ
    dof rx rz
    limits (-45.0 90.0)
           (-20.0 70.0)
  end
  begin
     id 10 
     name rtoes
     direction -1.53733e-011 -4.21932e-011 1   
     length 1.24596   
     axis -90 -7.62852e-016 -20   XYZ
    dof rx
    limits (-90.0 20.0)
  end
  begin
     id 11 
     name lowerback
     direction 0.0235427 0.999023 -0.0374125   
     length 2.21768   
     axis 0 0 0   XYZ
    dof rx ry rz
    limits (-20.0 45.0)
           (-30.0 30.0)
           (-30.0 30.0)
  end
  begin
     id 12 
     name upperback
     direction 0.0302156 0.996818 -0.073759   
     length 2.20352   
     axis 0 0 0   XYZ
    dof rx ry rz
    limits (-20.0 45.0)
           (-30.0 30.0)
           (-30.0 30.0)
  end
  begin
     id 13 
     name thorax
     direction 0.0187169 0.998235 -0.0563532   
     length 2.22103   
     axis 0 0 0   XYZ
    dof rx ry rz
    limits (-20.0 45.0)
           (-30.0 30.0)
           (-30.0 30.0)
  end
  begin
     id 14 
     name lowerneck
     direction -0.119528 0.987423 0.103481   
     length 1.72948   
     axis 0 0 0   XYZ
    dof rx ry rz
    limits (-20.0 45.0)
           (-30.0 30.0)
           (-30.0 30.0)
  end
  begin
     id 15 
     name upperneck
     direction 0.248049 0.963095 -0.104496   
     length 1.74979   
     axis 0 0 0   XYZ
    dof rx ry rz
    limits (-20.0 45.0)
           (-30.0 30.0)
           (-30.0 30.0)
  end
  begin
     id 16
     name head
     direction 0.0903589 0.994284 -0.056876  
     length 1.78268  
     axis 0 0 0   XYZ
    dof rx ry rz
    limits (-20.0 45.0)
           (-30.0 30.0)
           (-30.0 30.0)
  end
  begin
     id 17 
     name lclavicle
     direction 0.946008 0.242039 -0.215608  
     length 3.80783  
     axis 0 0 0   XYZ
    dof ry rz
    limits (-20.0 10.0)
           (0.0 20.0)
  end
  begin
     id 18 
     name lhumerus
     direction 1 -4.48991e-011 -2.25695e-027   
     length 4.83125   
     axis 180 -30 -90   XYZ
    dof rx ry rz
    limits (-60.0 90.0)
           (-90.0 90.0)
           (-90.0 90.0)
  end
  begin
     id 19
     name lradius
     direction 0.999991 0.00366712 -0.00211721   
     length 3.00391   
     axis 180 -30 -90   XYZ
    dof rx
    limits (-10.0 170.0)
  end
  begin
     id 20
     name lwrist
     direction 0.999991 0.00393016 -0.00141978   
     length 1.50195   
     axis -1.00488e-014 90 90   XYZ
    dof ry
    limits (-180.0 0.0)
 end
  begin
     id 21 
     name lhand
     direction 1 -4.49123e-011 2.72098e-026   
     length 1.2717   
     axis -1.73687e-014 90 90   XYZ
    dof rx rz
    limits (-90.0 90.0)
           (-45.0 45.0)
  end
  begin
     id 22 
     name lfingers
     direction 1 -4.48678e-011 5.4479e-026   
     length 1.02528   
     axis -3.47372e-014 90 90   XYZ
    dof rx
    limits (0.0 90.0)
  end
  begin
     id 23
     name lthumb
     direction 0.707107 -6.34851e-011 0.707107   
     length 1.4721   
     axis -90 45 -1.62303e-014   XYZ
    dof rx rz
    limits (-45.0 45.0)
           (-45.0 45.0)
  end
  begin
     id 24 
     name rclavicle
     direction -0.981723 0.189447 -0.0181673   
     length 3.74989  
     axis 0 0 0   XYZ 
    dof ry rz
    limits (-10.0 20.0)
           (-20.0 0.0)
  end
  begin
     id 25 
     name rhumerus
     direction -1 -4.48985e-011 2.38206e-027  
     length 4.61118   
     axis 180 30 90   XYZ
    dof rx ry rz
    limits (-90.0 60.0)
           (-90.0 90.0)
           (-90.0 90.0)
  end
  begin
     id 26 
     name rradius
     direction -1 -4.48977e-011 7.41019e-027   
     length 2.91491   
     axis 180 30 90   XYZ
    dof rx
    limits (-10.0 170.0)
  end
  begin
     id 27 
     name rwrist
     direction -1 -4.48549e-011 1.3624e-026   
     length 1.45745   
     axis -1.00488e-014 -90 -90   XYZ
    dof ry
    limits (-180.0 0.0)
  end
  begin
     id 28
     name rhand
     direction -1 -4.49107e-011 2.72109e-026   
     length 1.30769   
     axis -1.73687e-014 -90 -90   XYZ
    dof rx rz
    limits (-90.0 90.0)
           (-45.0 45.0)
  end
  begin
     id 29
     name rfingers
     direction -1 -4.48919e-011 5.44468e-026   
     length 1.05429   
     axis -3.47372e-014 -90 -90   XYZ
    dof rx
    limits (0.0 90.0)
  end
  begin
     id 30
     name rthumb
     direction -0.707107 -6.35315e-011 0.707107   
     length 1.51376   
     axis -90 -45 1.62303e-014   XYZ
    dof rx rz
    limits (-45.0 45.0)
           (-45.0 45.0)
  end
:hierarchy
  begin
    root lhipjoint rhipjoint lowerback
    lhipjoint lfemur
    lfemur ltibia
    ltibia lfoot
    lfoot ltoes
    rhipjoint rfemur
    rfemur rtibia
    rtibia rfoot
    rfoot rtoes
    lowerback upperback
    upperback thorax
    thorax lowerneck lclavicle rclavicle
    lowerneck upperneck
    upperneck head
    lclavicle lhumerus
    lhumerus lradius
    lradius lwrist
    lwrist lhand lthumb
    lhand lfingers
    rclavicle rhumerus
    rhumerus rradius
    rradius rwrist
    rwrist rhand rthumb
    rhand rfingers
  end

#!OML:ASF X:\für Bonn\!DataBase\2005_08_11_Bastian_Final\c3d\Bastian.ASF
:FULLY-SPECIFIED
:DEGREES
1
root -10.099 16.8205 13.8351 532.461 22.8317 -176.312
lowerback 32.2318 -7.27223 4.39471
upperback 18.2993 -2.539 5.44199
thorax 3.39927 0.921771 4.19587
lowerneck -11.599 -12.4682 -20.5978
upperneck -12.3967 -12.6899 28.6466
head 2.0564 -5.26456 11.7188
rclavicle -3.97569e-014 9.22361e-014
rhumerus -17.2799 14.2077 -83.6846
rradius 66.5665
rwrist 12.3663
rhand -16.0406 10.1972
rfingers 7.12502
rthumb 10.161 -19.5375
lclavicle -3.97569e-014 9.22361e-014
lhumerus -13.6483 -33.7691 96.403
lradius 65.4231
lwrist 9.98734
lhand -15.9839 -11.6382
lfingers 7.12502
lthumb 10.2157 18.0937
rfemur -13.0002 -7.39712 24.2192
rtibia 48.3863
rfoot -20.8632 1.84318
rtoes -6.80505
lfemur -26.4458 2.43396 -10.4812
ltibia 69.5491
lfoot -11.0231 -13.9516
ltoes -28.5634
2
root -10.0505 16.8135 13.7827 532.368 22.7813 -176.235
lowerback 32.3128 -7.23077 4.38114
upperback 18.2862 -2.47644 5.43007
thorax 3.35206 0.955515 4.17492
lowerneck -11.499 -12.4629 -20.6832
upperneck -12.4319 -12.6867 28.6538
head 2.03654 -5.26777 11.7423
rclavicle 1.59028e-015 -3.33958e-014
rhumerus -17.1701 14.5429 -83.7538
rradius 66.7013
rwrist 12.4926
rhand -16.2005 10.094
rfingers 7.12502
rthumb 10.0068 -19.6481
lclavicle 1.59028e-015 -3.33958e-014
lhumerus -13.9551 -33.7126 96.4701
lradius 65.5817
lwrist 10.0747
lhand -15.9788 -11.6412
lfingers 7.12502
lthumb 10.2206 18.0905
rfemur -12.6189 -7.54506 24.3298
rtibia 48.4119
rfoot -21.1007 1.87947
rtoes -6.51441
lfemur -27.0525 2.65571 -10.7519
ltibia 68.6736
lfoot -11.2194 -13.6878
ltoes -28.2538
3
root -10.0028 16.8063 13.7298 532.242 22.7605 -176.187
lowerback 32.4377 -7.17256 4.33142
upperback 18.2683 -2.39892 5.40983
thorax 3.2839 0.993892 4.16047
lowerneck -11.3762 -12.4489 -20.8081
upperneck -12.4832 -12.667 28.708
head 2.01338 -5.26302 11.7944
rclavicle -4.13472e-014 7.23576e-014
rhumerus -17.0949 14.8519 -83.8212
rradius 66.8532
rwrist 12.6487
rhand -16.3378 9.97573
rfingers 7.12502
rthumb 9.87427 -19.7727
lclavicle -4.13472e-014 7.23576e-014
lhumerus -14.2664 -33.6455 96.5454
lradius 65.7501
lwrist 10.1332
lhand -15.9582 -11.6006
lfingers 7.12502
lthumb 10.2405 18.1301
rfemur -12.2077 -7.69354 24.4053
rtibia 48.4277
rfoot -21.3502 1.91389
rtoes -6.40476
lfemur -27.5974 2.87189 -11.0372
ltibia 67.7207
lfoot -11.3572 -13.4193
ltoes -27.9035
4
root -9.95599 16.7995 13.6772 532.161 22.736 -176.106
lowerback 32.52 -7.1251 4.31098
upperback 18.2561 -2.33366 5.3847
thorax 3.23707 1.02818 4.12809
lowerneck -11.2433 -12.4353 -20.9274
upperneck -12.5349 -12.6512 28.7719
head 1.99025 -5.26146 11.8488
rclavicle 2.22639e-014 1.19271e-014
rhumerus -16.9949 15.141 -83.9101
rradius 66.9845
rwrist 12.7907
rhand -16.5234 9.9016
rfingers 7.12502
rthumb 9.6952 -19.8553
lclavicle 2.22639e-014 1.19271e-014
lhumerus -14.5623 -33.5873 96.6062
lradius 65.897
lwrist 10.1821
lhand -15.9515 -11.5823
lfingers 7.12502
lthumb 10.247 18.1481
rfemur -11.8214 -7.85347 24.5214
rtibia 48.4332
rfoot -21.589 1.92196
rtoes -6.38871
lfemur -28.1553 3.04741 -11.2761
ltibia 66.7115
lfoot -11.4507 -13.1581
ltoes -27.4285
5
root -9.90939 16.7926 13.6231 532.086 22.7318 -176.038
lowerback 32.5832 -7.05278 4.28253
upperback 18.2454 -2.24335 5.36299
thorax 3.19813 1.07334 4.09632
lowerneck -11.115 -12.4277 -21.0187
upperneck -12.598 -12.6431 28.8196
head 1.9625 -5.26396 11.891
rclavicle -1.35174e-014 1.00187e-013
rhumerus -16.8866 15.3401 -83.9847
rradius 67.0943
rwrist 12.9219
rhand -16.6522 9.86236
rfingers 7.12502
rthumb 9.57095 -19.9003
lclavicle -1.35174e-014 1.00187e-013
lhumerus -14.8335 -33.5449 96.6824
lradius 66.0016
lwrist 10.189
lhand -15.9219 -11.5792
lfingers 7.12502
lthumb 10.2755 18.1498
rfemur -11.4464 -8.00181 24.6125
rtibia 48.4322
rfoot -21.8285 1.97426
rtoes -6.19931
lfemur -28.6739 3.19669 -11.5129
ltibia 65.6331
lfoot -11.5624 -12.9111
ltoes -27.0343
6
root -9.86347 16.7857 13.5688 532.017 22.7176 -175.988
lowerback 32.6422 -6.98563 4.2158
upperback 18.2286 -2.174 5.34708
thorax 3.15647 1.10283 4.09574
lowerneck -10.9954 -12.4118 -21.1732
upperneck -12.6205 -12.6261 28.8795
head 1.9511 -5.25994 11.9496
rclavicle 8.18993e-014 2.78299e-014
rhumerus -16.772 15.6338 -84.0419
rradius 67.194
rwrist 12.9985
rhand -16.8386 9.80381
rfingers 7.12502
rthumb 9.39106 -19.967
lclavicle 8.18993e-014 2.78299e-014
lhumerus -15.1214 -33.4935 96.7823
lradius 66.1261
lwrist 10.173
lhand -15.9515 -11.5824
lfingers 7.12502
lthumb 10.247 18.148
rfemur -11.0852 -8.15767 24.6862
rtibia 48.4274
rfoot -22.0521 2.01502
rtoes -6.08489
lfemur -29.1763 3.30261 -11.7512
ltibia 64.5059
lfoot -11.6311 -12.6906
ltoes -26.5854
7
root -9.81797 16.7795 13.514 531.946 22.7258 -175.913
lowerback 32.7355 -6.90637 4.16129
upperback 18.208 -2.08127 5.32833
thorax 3.09652 1.1457 4.07981
lowerneck -10.8655 -12.398 -21.2394
upperneck -12.675 -12.6152 28.9051
head 1.92019 -5.26242 11.9797
rclavicle -9.22361e-014 -4.77083e-015
rhumerus -16.6851 15.8644 -84.1248
rradius 67.3121
rwrist 13.0085
rhand -17.0011 9.75883
rfingers 7.12502
rthumb 9.23424 -20.019
lclavicle -9.22361e-014 -4.77083e-015
lhumerus -15.3829 -33.4403 96.8748
lradius 66.1912
lwrist 10.1232
lhand -15.9348 -11.647
lfingers 7.12502
lthumb 10.263 18.0826
rfemur -10.7037 -8.29835 24.7806
rtibia 48.4185
rfoot -22.2914 2.05914
rtoes -5.95005
lfemur -29.6091 3.38333 -11.9292
ltibia 63.332
lfoot -11.6667 -12.5183
ltoes -25.9855
8
root -9.7727 16.7727 13.4579 531.922 22.7239 -175.837
lowerback 32.7807 -6.83005 4.09885
upperback 18.1828 -2.00629 5.30979
thorax 3.05005 1.1761 4.0718
lowerneck -10.7948 -12.3836 -21.3108
upperneck -12.6876 -12.5982 28.9486
head 1.9117 -5.25627 12.015
rclavicle 1.19271e-014 -3.10104e-014
rhumerus -16.5795 16.108 -84.1962
rradius 67.3923
rwrist 13.0443
rhand -17.1843 9.75034
rfingers 7.12502
rthumb 9.0575 -20.0352
lclavicle 1.19271e-014 -3.10104e-014
lhumerus -15.6202 -33.389 96.9491
lradius 66.2651
lwrist 10.086
lhand -15.9578 -11.6706
lfingers 7.12502
lthumb 10.2408 18.0601
rfemur -10.3671 -8.45548 24.8771
rtibia 48.395
rfoot -22.5087 2.11077
rtoes -5.95632
lfemur -30.0483 3.39027 -12.0802
ltibia 62.1258
lfoot -11.7143 -12.3689
ltoes -25.7317
9
root -9.72794 16.766 13.4019 531.877 22.7369 -175.784
lowerback 32.8698 -6.72962 4.00477
upperback 18.1454 -1.90604 5.29733
thorax 2.97403 1.21556 4.07984
lowerneck -10.7258 -12.3791 -21.3237
upperneck -12.7019 -12.6024 28.9218
head 1.89504 -5.26289 12.0101
rclavicle -7.15625e-015 -1.145e-013
rhumerus -16.5141 16.3208 -84.2881
rradius 67.5076
rwrist 13.0348
rhand -17.408 9.67502
rfingers 7.12502
rthumb 8.84164 -20.1197
lclavicle -7.15625e-015 -1.145e-013
lhumerus -15.8502 -33.332 97.0512
lradius 66.2945
lwrist 10.0127
lhand -15.9076 -11.7595
lfingers 7.12502
lthumb 10.2893 17.9689
rfemur -10.0063 -8.58487 24.9482
rtibia 48.3529
rfoot -22.7413 2.17715
rtoes -5.8471
lfemur -30.4285 3.38199 -12.2318
ltibia 60.8895
lfoot -11.76 -12.277
ltoes -25.9103
10
root -9.68291 16.7618 13.3443 531.836 22.7611 -175.707
lowerback 32.9491 -6.63335 3.89359
upperback 18.1297 -1.81147 5.29538
thorax 2.92638 1.25272 4.1102
lowerneck -10.7189 -12.3728 -21.3541
upperneck -12.6805 -12.5954 28.9154
head 1.89942 -5.25756 12.0143
rclavicle -2.54444e-014 -2.22639e-014
rhumerus -16.4023 16.5889 -84.3528
rradius 67.5836
rwrist 12.9369
rhand -17.685 9.60954
rfingers 7.12502
rthumb 8.57433 -20.1964
lclavicle -2.54444e-014 -2.22639e-014
lhumerus -16.034 -33.2665 97.1501
lradius 66.3125
lwrist 9.94305
lhand -15.9188 -11.807
lfingers 7.12502
lthumb 10.2785 17.9218
rfemur -9.61836 -8.70787 25.0423
rtibia 48.2734
rfoot -22.9339 2.22304
rtoes -5.77678
lfemur -30.7621 3.34383 -12.3248
ltibia 59.6265
lfoot -11.8386 -12.2384
ltoes -26.6096
